<?xml version="1.0" encoding="UTF-8"?>
<svg width="12px" height="14px" viewBox="0 0 12 14" version="1.1" xmlns="http://www.w3.org/2000/svg" xmlns:xlink="http://www.w3.org/1999/xlink">
    <!-- Generator: Sketch 53.2 (72643) - https://sketchapp.com -->
    <title>close</title>
    <desc>Created with Sketch.</desc>
    <defs>
        <path d="M5.054,5.406 L7.868,1.346 C7.994,1.164 8.162,1.094 8.344,1.094 C8.498,1.094 8.652,1.15 8.792,1.234 C8.974,1.36 9.114,1.57 9.114,1.808 C9.114,1.906 9.086,2.018 9.002,2.116 L5.894,6.358 L9.408,11.16 C9.492,11.258 9.534,11.37 9.534,11.482 C9.534,11.706 9.394,11.916 9.212,12.042 C9.072,12.126 8.918,12.182 8.764,12.182 C8.582,12.182 8.414,12.112 8.274,11.944 L5.04,7.338 L1.792,11.944 C1.68,12.112 1.498,12.182 1.33,12.182 C1.176,12.182 1.008,12.126 0.868,12.028 C0.686,11.902 0.56,11.706 0.56,11.496 C0.56,11.384 0.602,11.272 0.672,11.16 L4.172,6.372 L0.98,2.116 C0.91,2.004 0.868,1.892 0.868,1.794 C0.868,1.584 0.994,1.374 1.176,1.248 C1.316,1.15 1.484,1.094 1.624,1.094 C1.806,1.094 1.96,1.164 2.072,1.332 L5.054,5.406 Z" id="path-1"></path>
    </defs>
    <g id="Page-1" stroke="none" stroke-width="1" fill="none" fill-rule="evenodd">
        <g id="close" transform="translate(1.000000, 0.000000)" fill="#000000" fill-rule="nonzero">
            <g id="X">
                <use xlink:href="#path-1"></use>
                <use stroke="#000000" stroke-width="2" xlink:href="#path-1"></use>
            </g>
        </g>
    </g>
</svg>